<svg width="21" height="24" viewBox="0 0 21 24" fill="none" xmlns="http://www.w3.org/2000/svg">
<path d="M10.5029 11.7C11.1353 11.7 11.6758 11.4941 12.1242 11.0823C12.5727 10.6706 12.7969 10.1756 12.7969 9.59733C12.7969 9.01911 12.5717 8.525 12.1213 8.115C11.6709 7.705 11.1295 7.5 10.4971 7.5C9.86465 7.5 9.32422 7.70589 8.87578 8.11767C8.42734 8.52943 8.20312 9.02443 8.20312 9.60267C8.20312 10.1809 8.42832 10.675 8.8787 11.085C9.32906 11.495 9.87047 11.7 10.5029 11.7ZM10.5 21.63C13.4094 19.21 15.5586 17.015 16.9477 15.045C18.3367 13.075 19.0312 11.34 19.0312 9.84C19.0312 7.4842 18.2077 5.55525 16.5607 4.05315C14.9137 2.55105 12.8935 1.8 10.5 1.8C8.1065 1.8 6.08626 2.55105 4.43927 4.05315C2.79226 5.55525 1.96875 7.4842 1.96875 9.84C1.96875 11.34 2.67969 13.075 4.10156 15.045C5.52344 17.015 7.65625 19.21 10.5 21.63ZM10.5 24C6.97812 21.26 4.34766 18.715 2.60859 16.365C0.869531 14.015 0 11.84 0 9.84C0 6.84 1.05547 4.45 3.16641 2.67C5.27734 0.89 7.72187 0 10.5 0C13.2781 0 15.7227 0.89 17.8336 2.67C19.9445 4.45 21 6.84 21 9.84C21 11.84 20.1305 14.015 18.3914 16.365C16.6523 18.715 14.0219 21.26 10.5 24Z" fill="white"/>
</svg>
