<svg width="149" height="95" viewBox="0 0 149 95" fill="none" xmlns="http://www.w3.org/2000/svg">
<g clip-path="url(#clip0_4_375)">
<g clip-path="url(#clip1_4_375)">
<g clip-path="url(#clip2_4_375)">
<g clip-path="url(#clip3_4_375)">
<g clip-path="url(#clip4_4_375)">
<g clip-path="url(#clip5_4_375)">
<g clip-path="url(#clip6_4_375)">
<g clip-path="url(#clip7_4_375)">
<g clip-path="url(#clip8_4_375)">
<g clip-path="url(#clip9_4_375)">
<path d="M58.789 43.168C59.5062 43.168 59.8648 43.6307 59.8648 44.5562C59.8648 45.5454 59.475 46.4709 58.6955 47.3325C57.3235 48.8962 56.0606 50.8587 54.9069 53.2202C53.1607 56.7943 52.2876 60.0174 52.2876 62.8895C52.2876 64.0064 52.4841 64.8201 52.877 65.3307C53.2636 65.8413 53.7064 66.0966 54.2053 66.0966C55.702 66.0966 57.4482 64.852 59.4439 62.3629C61.2212 60.0334 62.5776 57.7676 63.5131 55.5657C63.7625 55.0551 64.012 54.8317 64.2614 54.8956C64.5109 54.9594 64.5265 55.2466 64.3082 55.7572C63.0298 58.6612 61.5798 61.2141 59.9584 63.416C59.1164 64.5967 58.0719 65.5796 56.8246 66.3647C55.5773 67.1433 54.3394 67.5326 53.1108 67.5326C51.876 67.5326 50.9468 67.0316 50.3232 66.0296C49.6995 65.0212 49.3877 63.8309 49.3877 62.4587C49.3877 61.0865 49.553 59.7302 49.8835 58.3899C50.2078 57.0496 50.635 56.0125 51.1651 55.2785C48.0157 59.1398 44.6637 62.2353 41.1089 64.5648C39.238 65.7456 37.1644 66.4476 34.8882 66.671C34.6699 66.7029 34.3051 66.7189 33.7937 66.7189C33.2761 66.7189 32.6587 66.5274 31.9415 66.1445C29.6964 65.1871 28.5739 62.848 28.5739 59.1271C28.5739 55.4125 29.7588 51.3853 32.1286 47.0453C33.3759 44.7476 34.7479 42.7212 36.2446 40.9661C34.1554 39.9449 32.5963 38.844 31.5673 37.6632C30.8189 36.8016 30.4448 35.7645 30.4448 34.5518C30.4448 33.3392 30.6786 32.5733 31.1464 32.2542C31.4582 31.8393 31.7388 31.7595 31.9883 32.0148C32.1754 32.302 32.1847 32.6531 32.0163 33.0679C31.8417 33.4828 31.7544 33.8817 31.7544 34.2646C31.7544 35.1262 32.2065 36.0836 33.1108 37.1367C34.0151 38.1898 35.3403 39.1312 37.0865 39.9609C44.4142 31.6319 52.0226 27.4674 59.9116 27.4674C62.375 27.4674 64.3332 28.0322 65.7862 29.1619C67.2331 30.298 67.9565 31.7595 67.9565 33.5466C67.9565 35.4932 66.8963 37.376 64.7759 39.195C63.7158 40.1523 62.2034 40.982 60.239 41.6841C57.2455 42.7691 53.6846 43.3116 49.5561 43.3116C45.4214 43.3116 41.9976 42.8648 39.2848 41.9713C36.1354 46.5347 33.9683 50.3226 32.7834 53.3351C31.5985 56.3539 31.006 58.6931 31.006 60.3525C31.006 60.7035 31.0216 61.0226 31.0528 61.3098C31.427 63.9585 32.7366 65.2828 34.9817 65.2828C37.5074 65.2828 40.4385 63.8787 43.775 61.0705C46.1448 59.0281 48.4679 56.6028 50.7441 53.7946C53.0204 50.9864 54.7136 48.5132 55.8237 46.3751C56.9275 44.237 57.9159 43.168 58.789 43.168ZM66.0388 32.9722C66.0388 31.6 65.4869 30.5469 64.3831 29.8129C63.273 29.079 61.7513 28.712 59.818 28.712C57.8848 28.712 55.9608 29.0311 54.0463 29.6693C52.1255 30.3076 50.3325 31.249 48.6674 32.4935C46.9961 33.7381 45.5149 35.0145 44.224 36.3229C42.9268 37.6313 41.5299 39.195 40.0332 41.014C42.3718 41.7798 45.2405 42.1628 48.6394 42.1628C55.0316 42.1628 59.6933 41.1097 62.6244 39.0035C64.9007 37.376 66.0388 35.3656 66.0388 32.9722ZM76.1417 47.7633L75.9079 48.6249C74.3176 53.6989 72.852 57.4006 71.5112 59.7302C69.5468 63.1128 67.4888 64.8042 65.3372 64.8042C63.591 64.8042 62.7179 63.9426 62.7179 62.2193C62.7179 60.9109 63.1857 58.8845 64.1211 56.1401C63.8093 56.6507 63.5661 56.8167 63.3915 56.638C63.2231 56.4656 63.1857 56.2518 63.2792 55.9965L64.1211 54.369C64.7136 53.1245 65.0098 51.8799 65.0098 50.6353C65.0098 49.3908 64.7604 48.6568 64.2614 48.4334C66.1324 48.1143 67.2237 47.9611 67.5355 47.9739C67.8474 47.9931 68.0407 48.1303 68.1155 48.3856C68.1966 48.6409 68.2371 48.9281 68.2371 49.2472C68.2371 51.1938 67.7445 53.4915 66.7591 56.1401C65.78 58.7888 65.2905 60.5663 65.2905 61.4726C65.2905 62.3853 65.4308 62.9118 65.7114 63.0522C65.992 63.199 66.2727 63.2724 66.5533 63.2724C67.364 63.2724 68.2839 62.6023 69.3129 61.262C70.3419 59.9217 71.3709 57.9431 72.3999 55.3264C71.9634 54.3052 71.7451 53.4021 71.7451 52.6171C71.7451 51.8384 71.8386 51.1459 72.0257 50.5396C72.587 48.7206 73.4757 47.5878 74.6918 47.141C74.9412 47.0453 75.1751 46.9974 75.3934 46.9974C75.8923 46.9974 76.1417 47.2527 76.1417 47.7633ZM90.1735 51.497C89.6123 52.0714 88.8171 53.3734 87.7881 55.403C86.7591 57.4262 86.1417 58.9388 85.9359 59.9408C85.7364 60.9492 85.6366 61.763 85.6366 62.3821C85.6366 63.0075 85.8705 63.3203 86.3382 63.3203C86.9306 63.3203 87.6634 62.7618 88.5365 61.6449C89.815 60.0174 91.0778 57.8953 92.3251 55.2785C92.4498 54.9913 92.5901 54.8317 92.746 54.7998C92.9955 54.7041 93.1202 54.7998 93.1202 55.087C93.1202 55.2466 93.0735 55.4381 92.9799 55.6614C90.1112 61.597 87.6946 64.5648 85.7301 64.5648C84.8259 64.5648 84.0931 64.1181 83.5318 63.2245C83.2512 62.7459 83.1109 62.1076 83.1109 61.3098C83.1109 60.512 83.2668 59.5387 83.5786 58.3899C81.084 62.5065 78.9325 64.5648 77.124 64.5648C76.625 64.5648 76.1729 64.4053 75.7675 64.0862C74.8321 63.416 74.3644 62.2672 74.3644 60.6397C74.3644 57.5123 75.6896 54.3371 78.34 51.114C79.8368 49.327 81.6765 48.1622 83.8592 47.6197C84.4517 47.4601 85.013 47.3803 85.543 47.3803C86.9774 47.3803 88.1935 47.8909 89.1913 48.9121C89.5031 49.2631 89.5967 49.5982 89.472 49.9173C89.3472 50.2365 89.0822 50.3641 88.6768 50.3003C88.3338 49.1515 87.5855 48.577 86.4317 48.577C85.0909 48.577 83.4383 49.662 81.4738 51.832C80.3513 53.1085 79.3067 54.6084 78.34 56.3316C77.124 58.4059 76.5159 60.0653 76.5159 61.3098C76.5159 62.5544 76.9057 63.1767 77.6852 63.1767C79.5561 63.1767 82.0039 60.2408 85.0285 54.369C85.621 53.1883 86.1199 52.3809 86.5253 51.9469C86.9306 51.5193 87.4451 51.3055 88.0688 51.3055C88.1935 51.3055 88.5116 51.3534 89.0229 51.4491C89.5406 51.5448 89.9241 51.5608 90.1735 51.497ZM106.441 48.7685C102.606 55.6615 100.688 60.161 100.688 62.2672C100.688 63.0969 100.984 63.5117 101.577 63.5117C103.167 63.5117 105.303 60.7514 107.985 55.2306C108.172 54.7839 108.359 54.6084 108.546 54.7041C108.733 54.7998 108.827 54.9275 108.827 55.087C108.827 55.2466 108.764 55.4381 108.639 55.6614C106.987 59.076 105.593 61.4279 104.458 62.7171C103.317 64.0128 102.179 64.6606 101.044 64.6606C99.9023 64.6606 99.0354 64.2138 98.443 63.3203C98.1311 62.9054 97.9752 62.3374 97.9752 61.6162C97.9752 60.9014 98.1311 60.0334 98.443 59.0122C98.7548 57.991 99.6123 56.3316 101.015 54.034C101.358 53.4595 101.53 53.0032 101.53 52.6649C101.53 52.3331 101.265 52.1671 100.735 52.1671C100.205 52.1671 99.1913 52.8851 97.6946 54.3212C95.4495 56.4273 93.2824 59.5866 91.1932 63.799C91.0061 64.1181 90.7972 64.3159 90.5664 64.3925C90.3295 64.4755 89.868 64.5329 89.182 64.5648C88.496 64.5967 88.0438 64.6765 87.8256 64.8042C88.3245 63.783 89.3067 61.6928 90.7722 58.5335C93.3915 52.9489 95.1065 49.7578 95.9172 48.96C96.2914 48.577 96.8059 48.3856 97.4607 48.3856C97.5855 48.3856 97.9066 48.4334 98.4243 48.5292C98.9356 48.6249 99.3161 48.6409 99.5655 48.577C98.4118 49.2153 96.5253 52.215 93.906 57.5762C95.3716 55.7253 96.7061 54.2478 97.9098 53.1436C99.1071 52.0458 100.548 51.0247 102.232 50.0801C103.915 49.1419 105.147 48.6728 105.927 48.6728C106.114 48.6728 106.285 48.7047 106.441 48.7685ZM106.815 60.6397C106.815 57.991 108.063 53.5553 110.557 47.3325H108.125C107.969 47.3325 107.869 47.2431 107.826 47.0644C107.776 46.8921 107.791 46.7166 107.872 46.5379C107.947 46.3656 108.063 46.2794 108.218 46.2794H111.025C112.147 43.7584 113.192 41.6522 114.159 39.9609C115.125 38.2695 116.014 37.1271 116.825 36.5335C117.635 35.9464 118.222 35.6528 118.583 35.6528C118.939 35.6528 119.194 35.6847 119.35 35.7485C120.068 36.0995 120.426 36.8239 120.426 37.9217C120.426 39.0258 120.068 40.3598 119.35 41.9234C118.633 43.4871 117.932 44.9391 117.246 46.2794H119.491C119.647 46.2794 119.75 46.3656 119.799 46.5379C119.843 46.7166 119.827 46.8921 119.753 47.0644C119.672 47.2431 119.553 47.3325 119.397 47.3325H116.684C114.969 50.3003 112.896 52.933 110.464 55.2306L109.388 60.1131C109.294 60.528 109.247 60.9333 109.247 61.329C109.247 61.7311 109.357 62.1395 109.575 62.5544C109.793 62.9692 110.136 63.1767 110.604 63.1767C111.134 63.1767 111.726 62.9852 112.381 62.6023C113.878 61.4534 115.531 59.0441 117.339 55.3742C117.464 55.087 117.614 54.9115 117.788 54.8477C117.957 54.7839 118.056 54.8222 118.088 54.9626C118.119 55.1094 118.072 55.3423 117.947 55.6614C116.918 57.8634 116.107 59.427 115.515 60.3525C113.831 63.1288 112.038 64.517 110.136 64.517C109.17 64.517 108.374 64.15 107.751 63.416C107.127 62.682 106.815 61.7566 106.815 60.6397ZM113.878 46.2794H116.217C118.275 42.5138 119.304 39.897 119.304 38.4291C119.304 37.7909 119.194 37.4717 118.976 37.4717C118.633 37.4717 118.112 37.9823 117.414 39.0035C116.709 40.0247 115.531 42.45 113.878 46.2794ZM115.609 47.3325H113.41C113.036 48.226 112.194 50.3481 110.885 53.6989C112.568 51.9118 114.143 49.7897 115.609 47.3325Z" fill="white"/>
</g>
</g>
</g>
</g>
</g>
</g>
</g>
<path d="M92.5603 -0.0384521C118.214 -0.0384521 139.011 21.2454 139.011 47.5C139.011 73.7546 118.214 95.0385 92.5603 95.0385C75.7703 95.0385 61.0608 85.9219 52.9003 72.2619H54.9849C62.9399 84.8788 76.7966 93.2319 92.5603 93.2319C117.24 93.2319 137.246 72.7569 137.246 47.5C137.246 22.2431 117.24 1.76809 92.5603 1.76809C76.797 1.76809 62.9402 10.1212 54.9849 22.7381H52.9003C61.0608 9.07809 75.7703 -0.0384521 92.5603 -0.0384521Z" fill="white"/>
</g>
</g>
</g>
<defs>
<clipPath id="clip0_4_375">
<rect width="149" height="95" fill="white"/>
</clipPath>
<clipPath id="clip1_4_375">
<rect width="148.643" height="95.0769" fill="white" transform="translate(0.178284 -0.0384521)"/>
</clipPath>
<clipPath id="clip2_4_375">
<rect width="148.643" height="95.0769" fill="white" transform="translate(0.178284 -0.0384521)"/>
</clipPath>
<clipPath id="clip3_4_375">
<rect width="91.8617" height="40.0652" fill="white" transform="translate(28.5692 27.4674)"/>
</clipPath>
<clipPath id="clip4_4_375">
<rect width="91.8617" height="40.0652" fill="white" transform="translate(28.5692 27.4674)"/>
</clipPath>
<clipPath id="clip5_4_375">
<rect width="91.8617" height="40.0652" fill="white" transform="translate(28.5692 27.4674)"/>
</clipPath>
<clipPath id="clip6_4_375">
<rect width="91.8617" height="40.0652" fill="white" transform="translate(28.5692 27.4674)"/>
</clipPath>
<clipPath id="clip7_4_375">
<rect width="91.8617" height="40.0652" fill="white" transform="translate(28.5692 27.4674)"/>
</clipPath>
<clipPath id="clip8_4_375">
<rect width="91.8617" height="40.0652" fill="white" transform="translate(28.5692 27.4674)"/>
</clipPath>
<clipPath id="clip9_4_375">
<rect width="91.8617" height="40.0652" fill="white" transform="translate(28.5692 27.4674)"/>
</clipPath>
</defs>
</svg>
