<svg xmlns="http://www.w3.org/2000/svg" version="1.1" xmlns:xlink="http://www.w3.org/1999/xlink" xmlns:svgjs="http://svgjs.dev/svgjs" width="1000" height="623" viewBox="0 0 1000 623">
<g transform="matrix(1,0,0,1,-0.6060606060606233,0.25222672064785456)"><svg viewBox="0 0 396 247" data-background-color="#ffffff" preserveAspectRatio="xMidYMid meet" height="623" 
width="1000" xmlns="http://www.w3.org/2000/svg" xmlns:xlink="http://www.w3.org/1999/xlink"><g id="tight-bounds" transform="matrix(1,0,0,1,0.2400000000000091,-0.09999999999999432)">
<svg viewBox="0 0 395.52 247.2" height="247.2" width="395.52"><g><svg></svg></g><g><svg viewBox="0 0 395.52 247.2" height="247.2" width="395.52">
<g transform="matrix(1,0,0,1,75.54432,71.51521173116089)"><svg viewBox="0 0 244.43135999999998 104.16957653767821" height="104.16957653767821" width="244.43135999999998">
<g><svg viewBox="0 0 244.43135999999998 104.16957653767821" height="104.16957653767821" width="244.43135999999998"><g>
<svg viewBox="0 0 244.43136 104.16957653767822" height="104.16957653767821" width="244.43135999999998"><g>
<svg viewBox="0 0 244.43136 104.16957653767822" height="104.16957653767822" width="244.43136"><g id="textblocktransform"><svg viewBox="0 0 244.43136 104.16957653767822" height="104.16957653767822" width="244.43136" id="textblock"><g><svg viewBox="0 0 244.43136 104.16957653767822" height="104.16957653767822" width="244.43136"><g transform="matrix(1,0,0,1,0,0)"><svg width="244.43136" viewBox="0.9 -38.65 98.19 41.85" height="104.16957653767822" data-palette-color="#0023ff"><path d="M33.2-22.25L33.2-22.25Q34.35-22.25 34.35-20.8L34.35-20.8Q34.35-19.25 33.1-17.9L33.1-17.9Q30.9-15.45 29.05-11.75L29.05-11.75Q26.25-6.15 26.25-1.65L26.25-1.65Q26.25 0.1 26.88 0.9 27.5 1.7 28.3 1.7L28.3 1.7Q30.7 1.7 33.9-2.2L33.9-2.2Q36.75-5.85 38.25-9.3L38.25-9.3Q38.65-10.1 39.05-10 39.45-9.9 39.1-9.1L39.1-9.1Q37.05-4.55 34.45-1.1L34.45-1.1Q33.1 0.75 31.1 1.98 29.1 3.2 27.13 3.2 25.15 3.2 24.15 1.63 23.15 0.05 23.15-2.1 23.15-4.25 23.68-6.35 24.2-8.45 25.05-9.6L25.05-9.6Q20-3.55 14.3 0.1L14.3 0.1Q11.3 1.95 7.65 2.3L7.65 2.3Q7.3 2.35 6.48 2.35 5.65 2.35 4.5 1.75L4.5 1.75Q0.9 0.25 0.9-5.58 0.9-11.4 4.7-18.2L4.7-18.2Q6.7-21.8 9.1-24.55L9.1-24.55Q5.75-26.15 4.1-28L4.1-28Q2.9-29.35 2.9-31.25 2.9-33.15 3.65-33.65L3.65-33.65Q4.15-34.3 4.55-33.9L4.55-33.9Q4.85-33.45 4.58-32.8 4.3-32.15 4.3-31.55L4.3-31.55Q4.3-30.2 5.75-28.55 7.2-26.9 10-25.6L10-25.6Q21.75-38.65 34.4-38.65L34.4-38.65Q38.35-38.65 40.68-36.88 43-35.1 43-32.3L43-32.3Q43-29.25 39.6-26.4L39.6-26.4Q37.9-24.9 34.75-23.8L34.75-23.8Q29.95-22.1 23.33-22.1 16.7-22.1 12.35-23.5L12.35-23.5Q7.3-16.35 5.4-11.63 3.5-6.9 3.5-4.3L3.5-4.3Q3.5-3.75 3.55-3.3L3.55-3.3Q4.15 0.85 7.75 0.85L7.75 0.85Q11.8 0.85 17.15-3.55L17.15-3.55Q20.95-6.75 24.6-11.15 28.25-15.55 30.03-18.9 31.8-22.25 33.2-22.25ZM40.95-32.9L40.95-32.9Q40.95-35.05 39.18-36.2 37.4-37.35 34.3-37.35 31.2-37.35 28.13-36.35 25.05-35.35 22.38-33.4 19.7-31.45 17.63-29.4 15.55-27.35 13.15-24.5L13.15-24.5Q16.9-23.3 22.35-23.3L22.35-23.3Q32.6-23.3 37.3-26.6L37.3-26.6Q40.95-29.15 40.95-32.9ZM51.75-17.45L51.75-17.45 51.5-16.55Q48.95-8.6 46.8-4.95L46.8-4.95Q43.65 0.35 40.2 0.35L40.2 0.35Q37.4 0.35 37.4-2.35L37.4-2.35Q37.4-4.4 38.9-8.7L38.9-8.7Q38.4-7.9 38.12-8.18 37.85-8.45 38-8.85L38-8.85 38.9-10.55Q39.85-12.5 39.85-14.45 39.85-16.4 39.05-16.75L39.05-16.75Q42.05-17.25 42.55-17.23 43.05-17.2 43.17-16.8 43.3-16.4 43.3-15.9L43.3-15.9Q43.3-12.85 41.72-8.7 40.15-4.55 40.15-3.13 40.15-1.7 40.6-1.48 41.05-1.25 41.5-1.25L41.5-1.25Q42.8-1.25 44.45-3.35 46.1-5.45 47.75-9.55L47.75-9.55Q47.05-11.15 47.05-12.38 47.05-13.6 47.35-14.55L47.35-14.55Q48.25-17.4 50.2-18.1L50.2-18.1Q50.6-18.25 50.95-18.25L50.95-18.25Q51.75-18.25 51.75-17.45ZM66.75-13.55Q65.85-12.65 64.2-9.47 62.55-6.3 62.22-4.73 61.9-3.15 61.9-2.18 61.9-1.2 62.65-1.2L62.65-1.2Q63.6-1.2 65-2.95L65-2.95Q67.05-5.5 69.05-9.6L69.05-9.6Q69.25-10.05 69.5-10.1L69.5-10.1Q69.9-10.25 69.9-9.8L69.9-9.8Q69.9-9.55 69.75-9.2L69.75-9.2Q65.15 0.1 62 0.1L62 0.1Q60.55 0.1 59.65-1.3L59.65-1.3Q59.2-2.05 59.2-3.3 59.2-4.55 59.7-6.35L59.7-6.35Q55.7 0.1 52.8 0.1L52.8 0.1Q52 0.1 51.35-0.4L51.35-0.4Q49.85-1.45 49.85-4L49.85-4Q49.85-8.9 54.1-13.95L54.1-13.95Q56.5-16.75 60-17.6L60-17.6Q60.95-17.85 61.8-17.85L61.8-17.85Q64.1-17.85 65.7-16.25L65.7-16.25Q66.2-15.7 66-15.2 65.8-14.7 65.15-14.8L65.15-14.8Q64.6-16.6 62.75-16.6L62.75-16.6Q60.6-16.6 57.45-13.2L57.45-13.2Q55.65-11.2 54.1-8.5L54.1-8.5Q52.15-5.25 52.15-3.3 52.15-1.35 53.4-1.35L53.4-1.35Q56.4-1.35 61.25-10.55L61.25-10.55Q62.2-12.4 62.85-13.08 63.5-13.75 64.5-13.75L64.5-13.75Q64.7-13.75 65.52-13.6 66.35-13.45 66.75-13.55L66.75-13.55ZM84.14-16.4L84.14-16.4Q77.99-5.6 77.99-2.3L77.99-2.3Q77.99-1 78.94-1L78.94-1Q81.49-1 85.79-9.65L85.79-9.65Q86.09-10.35 86.39-10.2 86.69-10.05 86.69-9.8 86.69-9.55 86.49-9.2L86.49-9.2Q83.84-3.85 82.02-1.83 80.19 0.2 78.37 0.2 76.54 0.2 75.59-1.2L75.59-1.2Q75.09-1.85 75.09-2.98 75.09-4.1 75.59-5.7 76.09-7.3 78.34-10.9L78.34-10.9Q78.89-11.8 78.89-12.33 78.89-12.85 78.04-12.85 77.19-12.85 74.79-10.6L74.79-10.6Q71.19-7.3 67.84-0.7L67.84-0.7Q67.54-0.2 67.17-0.08 66.79 0.05 65.69 0.1 64.59 0.15 64.24 0.35L64.24 0.35Q65.04-1.25 67.39-6.2L67.39-6.2Q71.59-14.95 72.89-16.2L72.89-16.2Q73.49-16.8 74.54-16.8L74.54-16.8Q74.74-16.8 75.57-16.65 76.39-16.5 76.79-16.6L76.79-16.6Q74.94-15.6 70.74-7.2L70.74-7.2Q73.09-10.1 75.02-11.83 76.94-13.55 79.64-15.03 82.34-16.5 83.59-16.5L83.59-16.5Q83.89-16.5 84.14-16.4ZM84.54-4L84.54-4Q84.54-8.15 88.54-17.9L88.54-17.9 85.94-17.9Q85.69-17.9 85.62-18.18 85.54-18.45 85.67-18.73 85.79-19 86.04-19L86.04-19 89.04-19Q90.84-22.95 92.39-25.6 93.94-28.25 95.24-29.18 96.54-30.1 97.12-30.1 97.69-30.1 97.94-30L97.94-30Q99.09-29.45 99.09-27.73 99.09-26 97.94-23.55 96.79-21.1 95.69-19L95.69-19 98.09-19Q98.34-19 98.42-18.73 98.49-18.45 98.37-18.18 98.24-17.9 97.99-17.9L97.99-17.9 95.09-17.9Q92.34-13.25 88.44-9.65L88.44-9.65 87.29-4.55Q87.14-3.9 87.14-3.28 87.14-2.65 87.49-2 87.84-1.35 88.59-1.35L88.59-1.35Q89.44-1.35 90.49-1.95L90.49-1.95Q92.89-3.75 95.79-9.5L95.79-9.5Q95.99-9.95 96.27-10.05 96.54-10.15 96.59-9.93 96.64-9.7 96.44-9.2L96.44-9.2Q94.79-5.75 93.84-4.3L93.84-4.3Q91.14 0.05 88.09 0.05L88.09 0.05Q86.54 0.05 85.54-1.1 84.54-2.25 84.54-4ZM92.09-19L94.59-19Q97.89-24.9 97.89-27.2L97.89-27.2Q97.89-28.2 97.54-28.2L97.54-28.2Q96.99-28.2 95.87-26.6 94.74-25 92.09-19L92.09-19ZM93.94-17.9L93.94-17.9 91.59-17.9Q90.99-16.5 88.89-11.25L88.89-11.25Q91.59-14.05 93.94-17.9Z" opacity="1" transform="matrix(1,0,0,1,0,0)" fill="#0023ff" class="undefined-text-0" data-fill-palette-color="primary" id="text-0"></path></svg></g></svg></g></svg></g></svg></g></svg></g></svg></g></svg></g><g><path d="M245.816 0c68.262 0 123.6 55.338 123.6 123.6 0 68.262-55.338 123.6-123.6 123.6-44.676 0-83.816-23.703-105.53-59.219h5.547c21.167 32.804 58.038 54.522 99.983 54.522 65.668 0 118.903-53.235 118.903-118.903 0-65.668-53.235-118.903-118.903-118.903-41.944 0-78.815 21.718-99.983 54.522h-5.547c21.714-35.516 60.854-59.219 105.53-59.219z" fill="#0023ff" stroke="transparent" data-fill-palette-color="tertiary"></path></g></svg></g><defs></defs></svg><rect width="395.52" height="247.2" fill="none" stroke="none" visibility="hidden"></rect></g></svg></g></svg>