<svg width="25" height="25" viewBox="0 0 25 25" fill="none" xmlns="http://www.w3.org/2000/svg">
<path d="M12.4922 25C12.1105 25 11.7932 24.8717 11.5402 24.615C11.2872 24.3583 11.1607 24.0402 11.1607 23.6607V13.8393H1.33929C0.959821 13.8393 0.641741 13.7102 0.385045 13.452C0.128348 13.1938 0 12.8739 0 12.4922C0 12.1105 0.128348 11.7932 0.385045 11.5402C0.641741 11.2872 0.959821 11.1607 1.33929 11.1607H11.1607V1.33929C11.1607 0.959821 11.2898 0.641741 11.548 0.385045C11.8062 0.128348 12.1261 0 12.5078 0C12.8895 0 13.2068 0.128348 13.4598 0.385045C13.7128 0.641741 13.8393 0.959821 13.8393 1.33929V11.1607H23.6607C24.0402 11.1607 24.3583 11.2898 24.615 11.548C24.8717 11.8062 25 12.1261 25 12.5078C25 12.8895 24.8717 13.2068 24.615 13.4598C24.3583 13.7128 24.0402 13.8393 23.6607 13.8393H13.8393V23.6607C13.8393 24.0402 13.7102 24.3583 13.452 24.615C13.1938 24.8717 12.8739 25 12.4922 25Z" fill="#111D45"/>
</svg>
