<svg width="21" height="27" viewBox="0 0 21 27" fill="none" xmlns="http://www.w3.org/2000/svg">
<path d="M3.03719 27C2.19353 27 1.47641 26.6555 0.885847 25.9664C0.295282 25.2773 0 24.4406 0 23.4563V19.2375H3.67355V0L5.40331 2.025L7.13306 0L8.86281 2.025L10.5926 0L12.3223 2.025L14.0579 0L15.7934 2.025L17.5289 0L19.2645 2.025L21 0V23.4563C21 24.4406 20.7047 25.2773 20.1142 25.9664C19.5236 26.6555 18.8065 27 17.9628 27H3.03719ZM17.9628 24.975C18.3485 24.975 18.6618 24.8344 18.9029 24.5531C19.1439 24.2719 19.2645 23.9062 19.2645 23.4563V3.375H5.40909V19.2375H16.6612V23.4563C16.6612 23.9062 16.7817 24.2719 17.0227 24.5531C17.2638 24.8344 17.5771 24.975 17.9628 24.975ZM6.94215 8.7075V6.6825H13.8843V8.7075H6.94215ZM6.94215 13.23V11.205H13.8843V13.23H6.94215ZM16.5744 8.7075C16.343 8.7075 16.1405 8.60625 15.9669 8.40375C15.7934 8.20125 15.7066 7.965 15.7066 7.695C15.7066 7.425 15.7934 7.18875 15.9669 6.98625C16.1405 6.78375 16.343 6.6825 16.5744 6.6825C16.8058 6.6825 17.0083 6.78375 17.1818 6.98625C17.3554 7.18875 17.4421 7.425 17.4421 7.695C17.4421 7.965 17.3554 8.20125 17.1818 8.40375C17.0083 8.60625 16.8058 8.7075 16.5744 8.7075ZM16.5744 13.0613C16.343 13.0613 16.1405 12.96 15.9669 12.7575C15.7934 12.555 15.7066 12.3188 15.7066 12.0488C15.7066 11.7788 15.7934 11.5425 15.9669 11.34C16.1405 11.1375 16.343 11.0363 16.5744 11.0363C16.8058 11.0363 17.0083 11.1375 17.1818 11.34C17.3554 11.5425 17.4421 11.7788 17.4421 12.0488C17.4421 12.3188 17.3554 12.555 17.1818 12.7575C17.0083 12.96 16.8058 13.0613 16.5744 13.0613ZM3.00826 24.975H14.9256V21.2625H1.73554V23.4563C1.73554 23.9062 1.85751 24.2719 2.10145 24.5531C2.34539 24.8344 2.64766 24.975 3.00826 24.975Z" fill="#F9F9F9"/>
</svg>
