<svg width="19" height="18" viewBox="0 0 19 18" fill="none" xmlns="http://www.w3.org/2000/svg">
<path d="M17.8389 18L10.8986 11.425C10.3708 11.8583 9.75545 12.1958 9.05247 12.4375C8.34949 12.6792 7.60144 12.8 6.80833 12.8C4.90548 12.8 3.29505 12.175 1.97703 10.925C0.65901 9.675 0 8.16667 0 6.4C0 4.63333 0.659722 3.125 1.97917 1.875C3.29861 0.625 4.89514 0 6.76875 0C8.64236 0 10.2345 0.625 11.5451 1.875C12.8558 3.125 13.5111 4.63458 13.5111 6.40375C13.5111 7.11792 13.388 7.80833 13.1417 8.475C12.8954 9.14167 12.5259 9.76667 12.0333 10.35L19 16.9L17.8389 18ZM6.78194 11.3C8.21134 11.3 9.42633 10.8208 10.4269 9.8625C11.4275 8.90417 11.9278 7.75 11.9278 6.4C11.9278 5.05 11.4275 3.89583 10.4269 2.9375C9.42633 1.97917 8.21134 1.5 6.78194 1.5C5.33789 1.5 4.11044 1.97917 3.09959 2.9375C2.08875 3.89583 1.58333 5.05 1.58333 6.4C1.58333 7.75 2.08875 8.90417 3.09959 9.8625C4.11044 10.8208 5.33789 11.3 6.78194 11.3Z" fill="#7B7777"/>
</svg>
